<svg xmlns="http://www.w3.org/2000/svg" viewBox="0 0 100 100" width="100%" height="100%">
  <!-- Thumb -->
  <polygon points="50,95 22,70 12,50" fill="#B9A0FF" stroke="#B9A0FF" stroke-width="0.5" stroke-linejoin="round" />
  <polygon points="50,95 12,50 32,55" fill="#7C5CFF" stroke="#7C5CFF" stroke-width="0.5" stroke-linejoin="round" />

  <!-- Index -->
  <polygon points="50,95 32,55 28,15" fill="#58E0C4" stroke="#58E0C4" stroke-width="0.5" stroke-linejoin="round" />
  <polygon points="50,95 28,15 44,45" fill="#1DB59A" stroke="#1DB59A" stroke-width="0.5" stroke-linejoin="round" />

  <!-- Middle -->
  <polygon points="50,95 44,45 50,5" fill="#B9A0FF" stroke="#B9A0FF" stroke-width="0.5" stroke-linejoin="round" />
  <polygon points="50,95 50,5 56,45" fill="#7C5CFF" stroke="#7C5CFF" stroke-width="0.5" stroke-linejoin="round" />

  <!-- Ring -->
  <polygon points="50,95 56,45 72,15" fill="#58E0C4" stroke="#58E0C4" stroke-width="0.5" stroke-linejoin="round" />
  <polygon points="50,95 72,15 68,55" fill="#1DB59A" stroke="#1DB59A" stroke-width="0.5" stroke-linejoin="round" />

  <!-- Pinky -->
  <polygon points="50,95 68,55 88,40" fill="#B9A0FF" stroke="#B9A0FF" stroke-width="0.5" stroke-linejoin="round" />
  <polygon points="50,95 88,40 78,65" fill="#7C5CFF" stroke="#7C5CFF" stroke-width="0.5" stroke-linejoin="round" />
</svg>
